<?xml version="1.0" encoding="utf-8"?>
<!-- Generator: Adobe Illustrator 27.2.0, SVG Export Plug-In . SVG Version: 6.00 Build 0)  -->
<svg version="1.1" id="Layer_1" xmlns="http://www.w3.org/2000/svg" xmlns:xlink="http://www.w3.org/1999/xlink" x="0px" y="0px"
	 viewBox="0 0 1920 1080" style="enable-background:new 0 0 1920 1080;" xml:space="preserve">
<style type="text/css">
	.st0{fill:#8C6239;stroke:#000000;stroke-width:9;stroke-miterlimit:10;}
	.st1{opacity:0.68;stroke:#000000;stroke-width:9;stroke-miterlimit:10;}
	.st2{fill:#1A1A1A;}
</style>
<rect x="5.5" y="0.5" class="st0" width="147.3" height="46.5"/>
<rect x="152.8" y="0.5" class="st0" width="147.3" height="46.5"/>
<rect x="300" y="0.5" class="st0" width="147.3" height="46.5"/>
<rect x="447.3" y="0.5" class="st0" width="147.3" height="46.5"/>
<rect x="594.6" y="0.5" class="st0" width="147.3" height="46.5"/>
<rect x="741.8" y="0.5" class="st0" width="147.3" height="46.5"/>
<rect x="889.1" y="0.5" class="st0" width="147.3" height="46.5"/>
<rect x="1036.4" y="0.5" class="st0" width="147.3" height="46.5"/>
<rect x="1183.7" y="0.5" class="st0" width="147.3" height="46.5"/>
<rect x="1330.9" y="0.5" class="st0" width="147.3" height="46.5"/>
<rect x="1478.2" y="0.5" class="st0" width="147.3" height="46.5"/>
<rect x="1625.5" y="0.5" class="st0" width="147.3" height="46.5"/>
<rect x="1772.7" y="0.5" class="st0" width="147.3" height="46.5"/>
<rect x="-74" y="46.9" class="st0" width="147.3" height="46.5"/>
<rect x="73.2" y="46.9" class="st0" width="147.3" height="46.5"/>
<rect x="220.5" y="46.9" class="st0" width="147.3" height="46.5"/>
<rect x="367.8" y="46.9" class="st0" width="147.3" height="46.5"/>
<rect x="515" y="46.9" class="st0" width="147.3" height="46.5"/>
<rect x="662.3" y="46.9" class="st0" width="147.3" height="46.5"/>
<rect x="809.6" y="46.9" class="st0" width="147.3" height="46.5"/>
<rect x="956.8" y="46.9" class="st0" width="147.3" height="46.5"/>
<rect x="1104.1" y="46.9" class="st0" width="147.3" height="46.5"/>
<rect x="1251.4" y="46.9" class="st0" width="147.3" height="46.5"/>
<rect x="1398.6" y="46.9" class="st0" width="147.3" height="46.5"/>
<rect x="1545.9" y="46.9" class="st0" width="147.3" height="46.5"/>
<rect x="1693.2" y="46.9" class="st0" width="147.3" height="46.5"/>
<rect x="1840.6" y="46.9" class="st0" width="147.3" height="46.5"/>
<rect x="5.2" y="93.4" class="st0" width="147.3" height="46.5"/>
<rect x="152.4" y="93.4" class="st0" width="147.3" height="46.5"/>
<rect x="299.7" y="93.4" class="st0" width="147.3" height="46.5"/>
<rect x="447" y="93.4" class="st0" width="147.3" height="46.5"/>
<rect x="594.2" y="93.4" class="st0" width="147.3" height="46.5"/>
<rect x="741.5" y="93.4" class="st0" width="147.3" height="46.5"/>
<rect x="888.8" y="93.4" class="st0" width="147.3" height="46.5"/>
<rect x="1036" y="93.4" class="st0" width="147.3" height="46.5"/>
<rect x="1183.3" y="93.4" class="st0" width="147.3" height="46.5"/>
<rect x="1330.6" y="93.4" class="st0" width="147.3" height="46.5"/>
<rect x="1477.8" y="93.4" class="st0" width="147.3" height="46.5"/>
<rect x="1625.1" y="93.4" class="st0" width="147.3" height="46.5"/>
<rect x="1772.4" y="93.4" class="st0" width="147.3" height="46.5"/>
<rect x="-74.4" y="139.9" class="st0" width="147.3" height="46.5"/>
<rect x="72.9" y="139.9" class="st0" width="147.3" height="46.5"/>
<rect x="220.1" y="139.9" class="st0" width="147.3" height="46.5"/>
<rect x="367.4" y="139.9" class="st0" width="147.3" height="46.5"/>
<rect x="514.7" y="139.9" class="st0" width="147.3" height="46.5"/>
<rect x="662" y="139.9" class="st0" width="147.3" height="46.5"/>
<rect x="809.2" y="139.9" class="st0" width="147.3" height="46.5"/>
<rect x="956.5" y="139.9" class="st0" width="147.3" height="46.5"/>
<rect x="1103.8" y="139.9" class="st0" width="147.3" height="46.5"/>
<rect x="1251" y="139.9" class="st0" width="147.3" height="46.5"/>
<rect x="1398.3" y="139.9" class="st0" width="147.3" height="46.5"/>
<rect x="1545.6" y="139.9" class="st0" width="147.3" height="46.5"/>
<rect x="1692.8" y="139.9" class="st0" width="147.3" height="46.5"/>
<rect x="1840.2" y="139.9" class="st0" width="147.3" height="46.5"/>
<rect x="5.1" y="176" class="st0" width="147.3" height="46.5"/>
<rect x="152.4" y="176" class="st0" width="147.3" height="46.5"/>
<rect x="299.6" y="176" class="st0" width="147.3" height="46.5"/>
<rect x="446.9" y="176" class="st0" width="147.3" height="46.5"/>
<rect x="594.2" y="176" class="st0" width="147.3" height="46.5"/>
<rect x="741.4" y="176" class="st0" width="147.3" height="46.5"/>
<rect x="888.7" y="176" class="st0" width="147.3" height="46.5"/>
<rect x="1036" y="176" class="st0" width="147.3" height="46.5"/>
<rect x="1183.3" y="176" class="st0" width="147.3" height="46.5"/>
<rect x="1330.5" y="176" class="st0" width="147.3" height="46.5"/>
<rect x="1477.8" y="176" class="st0" width="147.3" height="46.5"/>
<rect x="1625.1" y="176" class="st0" width="147.3" height="46.5"/>
<rect x="1772.3" y="176" class="st0" width="147.3" height="46.5"/>
<rect x="-74.5" y="222.4" class="st0" width="147.3" height="46.5"/>
<rect x="72.8" y="222.4" class="st0" width="147.3" height="46.5"/>
<rect x="220.1" y="222.4" class="st0" width="147.3" height="46.5"/>
<rect x="367.4" y="222.4" class="st0" width="147.3" height="46.5"/>
<rect x="514.6" y="222.4" class="st0" width="147.3" height="46.5"/>
<rect x="661.9" y="222.4" class="st0" width="147.3" height="46.5"/>
<rect x="809.2" y="222.4" class="st0" width="147.3" height="46.5"/>
<rect x="956.4" y="222.4" class="st0" width="147.3" height="46.5"/>
<rect x="1103.7" y="222.4" class="st0" width="147.3" height="46.5"/>
<rect x="1251" y="222.4" class="st0" width="147.3" height="46.5"/>
<rect x="1398.2" y="222.4" class="st0" width="147.3" height="46.5"/>
<rect x="1545.5" y="222.4" class="st0" width="147.3" height="46.5"/>
<rect x="1692.8" y="222.4" class="st0" width="147.3" height="46.5"/>
<rect x="1840.2" y="222.4" class="st0" width="147.3" height="46.5"/>
<rect x="5.9" y="269.3" class="st0" width="147.3" height="46.5"/>
<rect x="153.2" y="269.3" class="st0" width="147.3" height="46.5"/>
<rect x="300.5" y="269.3" class="st0" width="147.3" height="46.5"/>
<rect x="447.8" y="269.3" class="st0" width="147.3" height="46.5"/>
<rect x="595" y="269.3" class="st0" width="147.3" height="46.5"/>
<rect x="742.3" y="269.3" class="st0" width="147.3" height="46.5"/>
<rect x="889.6" y="269.3" class="st0" width="147.3" height="46.5"/>
<rect x="1036.8" y="269.3" class="st0" width="147.3" height="46.5"/>
<rect x="1184.1" y="269.3" class="st0" width="147.3" height="46.5"/>
<rect x="1331.4" y="269.3" class="st0" width="147.3" height="46.5"/>
<rect x="1478.6" y="269.3" class="st0" width="147.3" height="46.5"/>
<rect x="1625.9" y="269.3" class="st0" width="147.3" height="46.5"/>
<rect x="1773.2" y="269.3" class="st0" width="147.3" height="46.5"/>
<rect x="-73.6" y="315.7" class="st0" width="147.3" height="46.5"/>
<rect x="73.7" y="315.7" class="st0" width="147.3" height="46.5"/>
<rect x="220.9" y="315.7" class="st0" width="147.3" height="46.5"/>
<rect x="368.2" y="315.7" class="st0" width="147.3" height="46.5"/>
<rect x="515.5" y="315.7" class="st0" width="147.3" height="46.5"/>
<rect x="662.7" y="315.7" class="st0" width="147.3" height="46.5"/>
<rect x="810" y="315.7" class="st0" width="147.3" height="46.5"/>
<rect x="957.3" y="315.7" class="st0" width="147.3" height="46.5"/>
<rect x="1104.6" y="315.7" class="st0" width="147.3" height="46.5"/>
<rect x="1251.8" y="315.7" class="st0" width="147.3" height="46.5"/>
<rect x="1399.1" y="315.7" class="st0" width="147.3" height="46.5"/>
<rect x="1546.4" y="315.7" class="st0" width="147.3" height="46.5"/>
<rect x="1693.6" y="315.7" class="st0" width="147.3" height="46.5"/>
<rect x="1841" y="315.7" class="st0" width="147.3" height="46.5"/>
<rect x="5.6" y="362.2" class="st0" width="147.3" height="46.5"/>
<rect x="152.9" y="362.2" class="st0" width="147.3" height="46.5"/>
<rect x="300.1" y="362.2" class="st0" width="147.3" height="46.5"/>
<rect x="447.4" y="362.2" class="st0" width="147.3" height="46.5"/>
<rect x="594.7" y="362.2" class="st0" width="147.3" height="46.5"/>
<rect x="742" y="362.2" class="st0" width="147.3" height="46.5"/>
<rect x="889.2" y="362.2" class="st0" width="147.3" height="46.5"/>
<rect x="1036.5" y="362.2" class="st0" width="147.3" height="46.5"/>
<rect x="1183.8" y="362.2" class="st0" width="147.3" height="46.5"/>
<rect x="1331" y="362.2" class="st0" width="147.3" height="46.5"/>
<rect x="1478.3" y="362.2" class="st0" width="147.3" height="46.5"/>
<rect x="1625.6" y="362.2" class="st0" width="147.3" height="46.5"/>
<rect x="1772.8" y="362.2" class="st0" width="147.3" height="46.5"/>
<rect x="-73.9" y="408.6" class="st0" width="147.3" height="46.5"/>
<rect x="73.3" y="408.6" class="st0" width="147.3" height="46.5"/>
<rect x="220.6" y="408.6" class="st0" width="147.3" height="46.5"/>
<rect x="367.9" y="408.6" class="st0" width="147.3" height="46.5"/>
<rect x="515.1" y="408.6" class="st0" width="147.3" height="46.5"/>
<rect x="662.4" y="408.6" class="st0" width="147.3" height="46.5"/>
<rect x="809.7" y="408.6" class="st0" width="147.3" height="46.5"/>
<rect x="956.9" y="408.6" class="st0" width="147.3" height="46.5"/>
<rect x="1104.2" y="408.6" class="st0" width="147.3" height="46.5"/>
<rect x="1251.5" y="408.6" class="st0" width="147.3" height="46.5"/>
<rect x="1398.7" y="408.6" class="st0" width="147.3" height="46.5"/>
<rect x="1546" y="408.6" class="st0" width="147.3" height="46.5"/>
<rect x="1693.3" y="408.6" class="st0" width="147.3" height="46.5"/>
<rect x="1840.7" y="408.6" class="st0" width="147.3" height="46.5"/>
<rect x="5.5" y="444.8" class="st0" width="147.3" height="46.5"/>
<rect x="152.8" y="444.8" class="st0" width="147.3" height="46.5"/>
<rect x="300.1" y="444.8" class="st0" width="147.3" height="46.5"/>
<rect x="447.4" y="444.8" class="st0" width="147.3" height="46.5"/>
<rect x="594.6" y="444.8" class="st0" width="147.3" height="46.5"/>
<rect x="741.9" y="444.8" class="st0" width="147.3" height="46.5"/>
<rect x="889.2" y="444.8" class="st0" width="147.3" height="46.5"/>
<rect x="1036.4" y="444.8" class="st0" width="147.3" height="46.5"/>
<rect x="1183.7" y="444.8" class="st0" width="147.3" height="46.5"/>
<rect x="1331" y="444.8" class="st0" width="147.3" height="46.5"/>
<rect x="1478.2" y="444.8" class="st0" width="147.3" height="46.5"/>
<rect x="1625.5" y="444.8" class="st0" width="147.3" height="46.5"/>
<rect x="1772.8" y="444.8" class="st0" width="147.3" height="46.5"/>
<rect x="-74" y="491.2" class="st0" width="147.3" height="46.5"/>
<rect x="73.3" y="491.2" class="st0" width="147.3" height="46.5"/>
<rect x="220.5" y="491.2" class="st0" width="147.3" height="46.5"/>
<rect x="367.8" y="491.2" class="st0" width="147.3" height="46.5"/>
<rect x="515.1" y="491.2" class="st0" width="147.3" height="46.5"/>
<rect x="662.3" y="491.2" class="st0" width="147.3" height="46.5"/>
<rect x="809.6" y="491.2" class="st0" width="147.3" height="46.5"/>
<rect x="956.9" y="491.2" class="st0" width="147.3" height="46.5"/>
<rect x="1104.2" y="491.2" class="st0" width="147.3" height="46.5"/>
<rect x="1251.4" y="491.2" class="st0" width="147.3" height="46.5"/>
<rect x="1398.7" y="491.2" class="st0" width="147.3" height="46.5"/>
<rect x="1546" y="491.2" class="st0" width="147.3" height="46.5"/>
<rect x="1693.2" y="491.2" class="st0" width="147.3" height="46.5"/>
<rect x="1840.6" y="491.2" class="st0" width="147.3" height="46.5"/>
<rect x="4.7" y="534.6" class="st0" width="147.3" height="46.5"/>
<rect x="152" y="534.6" class="st0" width="147.3" height="46.5"/>
<rect x="299.3" y="534.6" class="st0" width="147.3" height="46.5"/>
<rect x="446.5" y="534.6" class="st0" width="147.3" height="46.5"/>
<rect x="593.8" y="534.6" class="st0" width="147.3" height="46.5"/>
<rect x="741.1" y="534.6" class="st0" width="147.3" height="46.5"/>
<rect x="888.3" y="534.6" class="st0" width="147.3" height="46.5"/>
<rect x="1035.6" y="534.6" class="st0" width="147.3" height="46.5"/>
<rect x="1182.9" y="534.6" class="st0" width="147.3" height="46.5"/>
<rect x="1330.1" y="534.6" class="st0" width="147.3" height="46.5"/>
<rect x="1477.4" y="534.6" class="st0" width="147.3" height="46.5"/>
<rect x="1624.7" y="534.6" class="st0" width="147.3" height="46.5"/>
<rect x="1772" y="534.6" class="st0" width="147.3" height="46.5"/>
<rect x="-74.8" y="581" class="st0" width="147.3" height="46.5"/>
<rect x="72.4" y="581" class="st0" width="147.3" height="46.5"/>
<rect x="219.7" y="581" class="st0" width="147.3" height="46.5"/>
<rect x="367" y="581" class="st0" width="147.3" height="46.5"/>
<rect x="514.3" y="581" class="st0" width="147.3" height="46.5"/>
<rect x="661.5" y="581" class="st0" width="147.3" height="46.5"/>
<rect x="808.8" y="581" class="st0" width="147.3" height="46.5"/>
<rect x="956.1" y="581" class="st0" width="147.3" height="46.5"/>
<rect x="1103.3" y="581" class="st0" width="147.3" height="46.5"/>
<rect x="1250.6" y="581" class="st0" width="147.3" height="46.5"/>
<rect x="1397.9" y="581" class="st0" width="147.3" height="46.5"/>
<rect x="1545.1" y="581" class="st0" width="147.3" height="46.5"/>
<rect x="1692.4" y="581" class="st0" width="147.3" height="46.5"/>
<rect x="1839.8" y="581" class="st0" width="147.3" height="46.5"/>
<rect x="4.4" y="627.5" class="st0" width="147.3" height="46.5"/>
<rect x="151.6" y="627.5" class="st0" width="147.3" height="46.5"/>
<rect x="298.9" y="627.5" class="st0" width="147.3" height="46.5"/>
<rect x="446.2" y="627.5" class="st0" width="147.3" height="46.5"/>
<rect x="593.5" y="627.5" class="st0" width="147.3" height="46.5"/>
<rect x="740.7" y="627.5" class="st0" width="147.3" height="46.5"/>
<rect x="888" y="627.5" class="st0" width="147.3" height="46.5"/>
<rect x="1035.3" y="627.5" class="st0" width="147.3" height="46.5"/>
<rect x="1182.5" y="627.5" class="st0" width="147.3" height="46.5"/>
<rect x="1329.8" y="627.5" class="st0" width="147.3" height="46.5"/>
<rect x="1477.1" y="627.5" class="st0" width="147.3" height="46.5"/>
<rect x="1624.3" y="627.5" class="st0" width="147.3" height="46.5"/>
<rect x="1771.6" y="627.5" class="st0" width="147.3" height="46.5"/>
<rect x="-75.2" y="674" class="st0" width="147.3" height="46.5"/>
<rect x="72.1" y="674" class="st0" width="147.3" height="46.5"/>
<rect x="219.4" y="674" class="st0" width="147.3" height="46.5"/>
<rect x="366.6" y="674" class="st0" width="147.3" height="46.5"/>
<rect x="513.9" y="674" class="st0" width="147.3" height="46.5"/>
<rect x="661.2" y="674" class="st0" width="147.3" height="46.5"/>
<rect x="808.4" y="674" class="st0" width="147.3" height="46.5"/>
<rect x="955.7" y="674" class="st0" width="147.3" height="46.5"/>
<rect x="1103" y="674" class="st0" width="147.3" height="46.5"/>
<rect x="1250.3" y="674" class="st0" width="147.3" height="46.5"/>
<rect x="1397.5" y="674" class="st0" width="147.3" height="46.5"/>
<rect x="1544.8" y="674" class="st0" width="147.3" height="46.5"/>
<rect x="1692.1" y="674" class="st0" width="147.3" height="46.5"/>
<rect x="1839.4" y="674" class="st0" width="147.3" height="46.5"/>
<rect x="4.3" y="710.1" class="st0" width="147.3" height="46.5"/>
<rect x="151.6" y="710.1" class="st0" width="147.3" height="46.5"/>
<rect x="298.9" y="710.1" class="st0" width="147.3" height="46.5"/>
<rect x="446.1" y="710.1" class="st0" width="147.3" height="46.5"/>
<rect x="593.4" y="710.1" class="st0" width="147.3" height="46.5"/>
<rect x="740.7" y="710.1" class="st0" width="147.3" height="46.5"/>
<rect x="887.9" y="710.1" class="st0" width="147.3" height="46.5"/>
<rect x="1035.2" y="710.1" class="st0" width="147.3" height="46.5"/>
<rect x="1182.5" y="710.1" class="st0" width="147.3" height="46.5"/>
<rect x="1329.7" y="710.1" class="st0" width="147.3" height="46.5"/>
<rect x="1477" y="710.1" class="st0" width="147.3" height="46.5"/>
<rect x="1624.3" y="710.1" class="st0" width="147.3" height="46.5"/>
<rect x="1771.5" y="710.1" class="st0" width="147.3" height="46.5"/>
<rect x="-75.2" y="756.5" class="st0" width="147.3" height="46.5"/>
<rect x="72" y="756.5" class="st0" width="147.3" height="46.5"/>
<rect x="219.3" y="756.5" class="st0" width="147.3" height="46.5"/>
<rect x="366.6" y="756.5" class="st0" width="147.3" height="46.5"/>
<rect x="513.8" y="756.5" class="st0" width="147.3" height="46.5"/>
<rect x="661.1" y="756.5" class="st0" width="147.3" height="46.5"/>
<rect x="808.4" y="756.5" class="st0" width="147.3" height="46.5"/>
<rect x="955.7" y="756.5" class="st0" width="147.3" height="46.5"/>
<rect x="1102.9" y="756.5" class="st0" width="147.3" height="46.5"/>
<rect x="1250.2" y="756.5" class="st0" width="147.3" height="46.5"/>
<rect x="1397.5" y="756.5" class="st0" width="147.3" height="46.5"/>
<rect x="1544.7" y="756.5" class="st0" width="147.3" height="46.5"/>
<rect x="1692" y="756.5" class="st0" width="147.3" height="46.5"/>
<rect x="1839.4" y="756.5" class="st0" width="147.3" height="46.5"/>
<rect x="5.2" y="803.3" class="st0" width="147.3" height="46.5"/>
<rect x="152.4" y="803.3" class="st0" width="147.3" height="46.5"/>
<rect x="299.7" y="803.3" class="st0" width="147.3" height="46.5"/>
<rect x="447" y="803.3" class="st0" width="147.3" height="46.5"/>
<rect x="594.2" y="803.3" class="st0" width="147.3" height="46.5"/>
<rect x="741.5" y="803.3" class="st0" width="147.3" height="46.5"/>
<rect x="888.8" y="803.3" class="st0" width="147.3" height="46.5"/>
<rect x="1036.1" y="803.3" class="st0" width="147.3" height="46.5"/>
<rect x="1183.3" y="803.3" class="st0" width="147.3" height="46.5"/>
<rect x="1330.6" y="803.3" class="st0" width="147.3" height="46.5"/>
<rect x="1477.9" y="803.3" class="st0" width="147.3" height="46.5"/>
<rect x="1625.1" y="803.3" class="st0" width="147.3" height="46.5"/>
<rect x="1772.4" y="803.3" class="st0" width="147.3" height="46.5"/>
<rect x="-74.4" y="849.8" class="st0" width="147.3" height="46.5"/>
<rect x="72.9" y="849.8" class="st0" width="147.3" height="46.5"/>
<rect x="220.2" y="849.8" class="st0" width="147.3" height="46.5"/>
<rect x="367.4" y="849.8" class="st0" width="147.3" height="46.5"/>
<rect x="514.7" y="849.8" class="st0" width="147.3" height="46.5"/>
<rect x="662" y="849.8" class="st0" width="147.3" height="46.5"/>
<rect x="809.2" y="849.8" class="st0" width="147.3" height="46.5"/>
<rect x="956.5" y="849.8" class="st0" width="147.3" height="46.5"/>
<rect x="1103.8" y="849.8" class="st0" width="147.3" height="46.5"/>
<rect x="1251" y="849.8" class="st0" width="147.3" height="46.5"/>
<rect x="1398.3" y="849.8" class="st0" width="147.3" height="46.5"/>
<rect x="1545.6" y="849.8" class="st0" width="147.3" height="46.5"/>
<rect x="1692.9" y="849.8" class="st0" width="147.3" height="46.5"/>
<rect x="1840.2" y="849.8" class="st0" width="147.3" height="46.5"/>
<rect x="4.8" y="896.3" class="st0" width="147.3" height="46.5"/>
<rect x="152.1" y="896.3" class="st0" width="147.3" height="46.5"/>
<rect x="299.4" y="896.3" class="st0" width="147.3" height="46.5"/>
<rect x="446.6" y="896.3" class="st0" width="147.3" height="46.5"/>
<rect x="593.9" y="896.3" class="st0" width="147.3" height="46.5"/>
<rect x="741.2" y="896.3" class="st0" width="147.3" height="46.5"/>
<rect x="888.4" y="896.3" class="st0" width="147.3" height="46.5"/>
<rect x="1035.7" y="896.3" class="st0" width="147.3" height="46.5"/>
<rect x="1183" y="896.3" class="st0" width="147.3" height="46.5"/>
<rect x="1330.2" y="896.3" class="st0" width="147.3" height="46.5"/>
<rect x="1477.5" y="896.3" class="st0" width="147.3" height="46.5"/>
<rect x="1624.8" y="896.3" class="st0" width="147.3" height="46.5"/>
<rect x="1772.1" y="896.3" class="st0" width="147.3" height="46.5"/>
<rect x="-74.7" y="942.7" class="st0" width="147.3" height="46.5"/>
<rect x="72.5" y="942.7" class="st0" width="147.3" height="46.5"/>
<rect x="219.8" y="942.7" class="st0" width="147.3" height="46.5"/>
<rect x="367.1" y="942.7" class="st0" width="147.3" height="46.5"/>
<rect x="514.4" y="942.7" class="st0" width="147.3" height="46.5"/>
<rect x="661.6" y="942.7" class="st0" width="147.3" height="46.5"/>
<rect x="808.9" y="942.7" class="st0" width="147.3" height="46.5"/>
<rect x="956.2" y="942.7" class="st0" width="147.3" height="46.5"/>
<rect x="1103.4" y="942.7" class="st0" width="147.3" height="46.5"/>
<rect x="1250.7" y="942.7" class="st0" width="147.3" height="46.5"/>
<rect x="1398" y="942.7" class="st0" width="147.3" height="46.5"/>
<rect x="1545.2" y="942.7" class="st0" width="147.3" height="46.5"/>
<rect x="1692.5" y="942.7" class="st0" width="147.3" height="46.5"/>
<rect x="1839.9" y="942.7" class="st0" width="147.3" height="46.5"/>
<rect x="4.8" y="978.9" class="st0" width="147.3" height="46.5"/>
<rect x="152" y="978.9" class="st0" width="147.3" height="46.5"/>
<rect x="299.3" y="978.9" class="st0" width="147.3" height="46.5"/>
<rect x="446.6" y="978.9" class="st0" width="147.3" height="46.5"/>
<rect x="593.8" y="978.9" class="st0" width="147.3" height="46.5"/>
<rect x="741.1" y="978.9" class="st0" width="147.3" height="46.5"/>
<rect x="888.4" y="978.9" class="st0" width="147.3" height="46.5"/>
<rect x="1035.7" y="978.9" class="st0" width="147.3" height="46.5"/>
<rect x="1182.9" y="978.9" class="st0" width="147.3" height="46.5"/>
<rect x="1330.2" y="978.9" class="st0" width="147.3" height="46.5"/>
<rect x="1477.5" y="978.9" class="st0" width="147.3" height="46.5"/>
<rect x="1624.7" y="978.9" class="st0" width="147.3" height="46.5"/>
<rect x="1772" y="978.9" class="st0" width="147.3" height="46.5"/>
<rect x="-74.8" y="1025.3" class="st0" width="147.3" height="46.5"/>
<rect x="72.5" y="1025.3" class="st0" width="147.3" height="46.5"/>
<rect x="219.8" y="1025.3" class="st0" width="147.3" height="46.5"/>
<rect x="367" y="1025.3" class="st0" width="147.3" height="46.5"/>
<rect x="514.3" y="1025.3" class="st0" width="147.3" height="46.5"/>
<rect x="661.6" y="1025.3" class="st0" width="147.3" height="46.5"/>
<rect x="808.8" y="1025.3" class="st0" width="147.3" height="46.5"/>
<rect x="956.1" y="1025.3" class="st0" width="147.3" height="46.5"/>
<rect x="1103.4" y="1025.3" class="st0" width="147.3" height="46.5"/>
<rect x="1250.6" y="1025.3" class="st0" width="147.3" height="46.5"/>
<rect x="1397.9" y="1025.3" class="st0" width="147.3" height="46.5"/>
<rect x="1545.2" y="1025.3" class="st0" width="147.3" height="46.5"/>
<rect x="1692.5" y="1025.3" class="st0" width="147.3" height="46.5"/>
<rect x="1839.8" y="1025.3" class="st0" width="147.3" height="46.5"/>
<rect x="-13.5" y="-29.5" class="st1" width="1953" height="1175"/>
<rect x="-13" y="944" class="st2" width="1953" height="137"/>
</svg>
