<?xml version="1.0" encoding="utf-8"?>
<!-- Generator: Adobe Illustrator 27.2.0, SVG Export Plug-In . SVG Version: 6.00 Build 0)  -->
<svg version="1.1" id="Layer_1" xmlns="http://www.w3.org/2000/svg" xmlns:xlink="http://www.w3.org/1999/xlink" x="0px" y="0px"
	 viewBox="0 0 1920 1080" style="enable-background:new 0 0 1920 1080;" xml:space="preserve">
<style type="text/css">
	.st0{fill:#B3B3B3;}
	.st1{fill:#4D4D4D;}
	.st2{fill:#FFFFFF;}
	.st3{fill:#1B1464;}
</style>
<g>
	<rect x="0.5" y="280.5" class="st0" width="1919" height="79.5"/>
	<path d="M1919,281v78.5H1V281H1919 M1920,280H0v80.5h1920V280L1920,280z"/>
</g>
<g>
	<rect x="0.5" y="361" class="st0" width="1919" height="79.5"/>
	<path d="M1919,361.5V440H1v-78.5H1919 M1920,360.5H0V441h1920V360.5L1920,360.5z"/>
</g>
<g>
	<rect x="0.5" y="441.5" class="st0" width="1919" height="79.5"/>
	<path d="M1919,442v78.5H1V442H1919 M1920,441H0v80.5h1920V441L1920,441z"/>
</g>
<g>
	<rect x="0.5" y="516.9" class="st0" width="1919" height="79.5"/>
	<path d="M1919,517.4v78.5H1v-78.5H1919 M1920,516.4H0v80.5h1920V516.4L1920,516.4z"/>
</g>
<g>
	<rect x="0.5" y="597.4" class="st0" width="1919" height="79.5"/>
	<path d="M1919,597.9v78.5H1v-78.5H1919 M1920,596.9H0v80.5h1920V596.9L1920,596.9z"/>
</g>
<g>
	<rect x="0.5" y="677.9" class="st0" width="1919" height="79.5"/>
	<path d="M1919,678.4v78.5H1v-78.5H1919 M1920,677.4H0v80.5h1920V677.4L1920,677.4z"/>
</g>
<g>
	<rect x="0.5" y="758.4" class="st0" width="1919" height="79.5"/>
	<path d="M1919,758.9v78.5H1v-78.5H1919 M1920,757.9H0v80.5h1920V757.9L1920,757.9z"/>
</g>
<g>
	<rect x="0.7" y="839.2" class="st0" width="1919" height="79.5"/>
	<path d="M1919.2,839.7v78.5H1.2v-78.5H1919.2 M1920.2,838.7H0.2v80.5h1920V838.7L1920.2,838.7z"/>
</g>
<g>
	<rect x="0.7" y="919.7" class="st0" width="1919" height="79.5"/>
	<path d="M1919.2,920.2v78.5H1.2v-78.5H1919.2 M1920.2,919.2H0.2v80.5h1920V919.2L1920.2,919.2z"/>
</g>
<g>
	<rect x="0.5" y="952.5" class="st1" width="1919" height="127"/>
	<path d="M1919,953v126H1V953H1919 M1920,952H0v128h1920V952L1920,952z"/>
</g>
<g>
	<rect x="1319" y="754.7" class="st2" width="561.2" height="224.3"/>
</g>
<g>
	<rect x="1306.5" y="743.5" class="st3" width="587" height="42.9"/>
	<path d="M1893,744v41.9h-586V744H1893 M1894,743h-588v43.9h588V743L1894,743z"/>
</g>
</svg>
