<?xml version="1.0" encoding="utf-8"?>
<!-- Generator: Adobe Illustrator 27.2.0, SVG Export Plug-In . SVG Version: 6.00 Build 0)  -->
<svg version="1.1" id="Layer_1" xmlns="http://www.w3.org/2000/svg" xmlns:xlink="http://www.w3.org/1999/xlink" x="0px" y="0px"
	 viewBox="0 0 1920 1080" style="enable-background:new 0 0 1920 1080;" xml:space="preserve">
<style type="text/css">
	.st0{fill:#534741;}
	.st1{fill:#AA7700;}
	.st2{opacity:0.7;fill:#3FB0FF;stroke:#FFFFFF;stroke-width:7;stroke-miterlimit:10;enable-background:new    ;}
	.st3{fill:none;stroke:#000000;stroke-width:15;stroke-miterlimit:10;}
	.st4{fill:none;stroke:#FFFFFF;stroke-width:7;stroke-miterlimit:10;}
	.st5{fill:#4A2E00;stroke:#000000;stroke-width:2;stroke-miterlimit:10;}
	.st6{fill:#554300;}
</style>
<g>
	<rect x="-2" y="155" class="st0" width="1924" height="924"/>
</g>
<g>
	<rect x="-2" class="st1" width="1924" height="924"/>
</g>
<circle class="st2" cx="124.5" cy="120.5" r="102"/>
<line class="st3" x1="-275.5" y1="344.5" x2="-277.5" y2="344.5"/>
<circle class="st4" cx="124.5" cy="120.5" r="102"/>
<ellipse class="st5" cx="673" cy="1092.8" rx="102.4" ry="156.4"/>
<ellipse class="st5" cx="673" cy="1092.8" rx="89.2" ry="130.6"/>
<rect x="626.1" y="1051.8" transform="matrix(-0.9884 -0.1519 0.1519 -0.9884 1177.9198 2200.8225)" class="st6" width="93.8" height="7.3"/>
<rect x="626.7" y="1051.8" transform="matrix(0.9884 -0.1519 0.1519 0.9884 -152.48 114.5416)" class="st6" width="93.8" height="7.3"/>
<ellipse class="st5" cx="1100.8" cy="1092.8" rx="102.4" ry="156.4"/>
<ellipse class="st5" cx="1100.8" cy="1092.8" rx="89.2" ry="130.6"/>
<rect x="1053.9" y="1051.8" transform="matrix(-0.9884 -0.1519 0.1519 -0.9884 2028.6189 2265.7996)" class="st6" width="93.8" height="7.3"/>
<rect x="1054.5" y="1051.8" transform="matrix(0.9884 -0.1519 0.1519 0.9884 -147.517 179.5188)" class="st6" width="93.8" height="7.3"/>
</svg>
