<?xml version="1.0" encoding="utf-8"?>
<!-- Generator: Adobe Illustrator 27.2.0, SVG Export Plug-In . SVG Version: 6.00 Build 0)  -->
<svg version="1.1" id="Layer_1" xmlns="http://www.w3.org/2000/svg" xmlns:xlink="http://www.w3.org/1999/xlink" x="0px" y="0px"
	 viewBox="0 0 1920 1080" style="enable-background:new 0 0 1920 1080;" xml:space="preserve">
<style type="text/css">
	.st0{fill:#E6E6E6;}
	.st1{fill:#999999;}
	.st2{fill:#C69C6D;stroke:#603813;stroke-width:14;stroke-miterlimit:10;}
	.st3{fill:#F2F2F2;}
	.st4{fill:#F2F2F2;stroke:#ED1C24;stroke-width:6;stroke-miterlimit:10;}
	.st5{fill:#603813;}
	.st6{fill:#42210B;}
</style>
<g>
	<rect class="st0" width="1920" height="1080"/>
</g>
<rect y="947" class="st1" width="1920" height="133"/>
<rect x="51" y="245" class="st2" width="756" height="460"/>
<rect x="92" y="276" class="st3" width="95" height="135"/>
<rect x="659" y="336" class="st3" width="95" height="121"/>
<rect x="500" y="428" class="st3" width="95" height="135"/>
<rect x="171" y="531" class="st3" width="95" height="95"/>
<rect x="179" y="391" class="st4" width="1" height="185"/>
<rect x="387.5" y="416.5" transform="matrix(6.123234e-17 -1 1 6.123234e-17 -163.5 939.5)" class="st4" width="1" height="270"/>
<rect x="627" y="381" transform="matrix(6.123234e-17 -1 1 6.123234e-17 191 1064)" class="st4" width="1" height="111"/>
<rect x="427" y="114" transform="matrix(-1.836970e-16 1 -1 -1.836970e-16 797 -57)" class="st4" width="0" height="512"/>
<rect x="1668" y="676" class="st5" width="254" height="271"/>
<rect x="1651.4" y="670" class="st6" width="271" height="39.6"/>
</svg>
