<?xml version="1.0" encoding="utf-8"?>
<!-- Generator: Adobe Illustrator 27.2.0, SVG Export Plug-In . SVG Version: 6.00 Build 0)  -->
<svg version="1.1" id="Layer_1" xmlns="http://www.w3.org/2000/svg" xmlns:xlink="http://www.w3.org/1999/xlink" x="0px" y="0px"
	 viewBox="0 0 1920 1080" style="enable-background:new 0 0 1920 1080;" xml:space="preserve">
<style type="text/css">
	.st0{fill:#1A1A1A;}
	.st1{stroke:#FFBA2A;stroke-width:14;stroke-miterlimit:10;}
	.st2{stroke:#2AE4FF;stroke-width:17;stroke-miterlimit:10;}
	.st3{fill:#2AE4FF;}
</style>
<g>
	<rect width="1920" height="1080"/>
</g>
<rect y="993" class="st0" width="1920" height="87"/>
<rect x="10" y="401" class="st1" width="221.3" height="194.7"/>
<rect x="231.3" y="401" class="st1" width="221.3" height="194.7"/>
<rect x="452.7" y="401" class="st1" width="221.3" height="194.7"/>
<rect x="10" y="595.7" class="st1" width="221.3" height="194.7"/>
<rect x="231.3" y="595.7" class="st1" width="221.3" height="194.7"/>
<rect x="452.7" y="595.7" class="st1" width="221.3" height="194.7"/>
<rect x="10" y="790.3" class="st1" width="221.3" height="194.7"/>
<rect x="231.3" y="790.3" class="st1" width="221.3" height="194.7"/>
<rect x="452.7" y="790.3" class="st1" width="221.3" height="194.7"/>
<rect x="1653" y="551" class="st2" width="212" height="433"/>
<rect x="1818.7" y="745.9" class="st3" width="28.6" height="84.8"/>
<rect x="674.2" y="401.3" class="st1" width="221.3" height="194.7"/>
<rect x="895.5" y="401.3" class="st1" width="221.3" height="194.7"/>
<rect x="674.2" y="595.9" class="st1" width="221.3" height="194.7"/>
<rect x="895.5" y="595.9" class="st1" width="221.3" height="194.7"/>
<rect x="674.2" y="790.6" class="st1" width="221.3" height="194.7"/>
<rect x="895.5" y="790.6" class="st1" width="221.3" height="194.7"/>
<rect x="10.2" y="-182.7" class="st1" width="221.3" height="194.7"/>
<rect x="231.5" y="-182.7" class="st1" width="221.3" height="194.7"/>
<rect x="452.8" y="-182.7" class="st1" width="221.3" height="194.7"/>
<rect x="10.2" y="11.9" class="st1" width="221.3" height="194.7"/>
<rect x="231.5" y="11.9" class="st1" width="221.3" height="194.7"/>
<rect x="452.8" y="11.9" class="st1" width="221.3" height="194.7"/>
<rect x="10.2" y="206.6" class="st1" width="221.3" height="194.7"/>
<rect x="231.5" y="206.6" class="st1" width="221.3" height="194.7"/>
<rect x="452.8" y="206.6" class="st1" width="221.3" height="194.7"/>
<rect x="674.2" y="-182.6" class="st1" width="221.3" height="194.7"/>
<rect x="895.5" y="-182.6" class="st1" width="221.3" height="194.7"/>
<rect x="674.2" y="12.1" class="st1" width="221.3" height="194.7"/>
<rect x="895.5" y="12.1" class="st1" width="221.3" height="194.7"/>
<rect x="674.2" y="206.8" class="st1" width="221.3" height="194.7"/>
<rect x="895.5" y="206.8" class="st1" width="221.3" height="194.7"/>
</svg>
