<?xml version="1.0" encoding="utf-8"?>
<!-- Generator: Adobe Illustrator 27.2.0, SVG Export Plug-In . SVG Version: 6.00 Build 0)  -->
<svg version="1.1" id="Layer_1" xmlns="http://www.w3.org/2000/svg" xmlns:xlink="http://www.w3.org/1999/xlink" x="0px" y="0px"
	 viewBox="0 0 1920 1080" style="enable-background:new 0 0 1920 1080;" xml:space="preserve">
<style type="text/css">
	.st0{fill:#FFFBE9;}
	.st1{fill:#FFFFFF;stroke:#000000;stroke-width:7;stroke-miterlimit:10;}
	.st2{stroke:#000000;stroke-width:7;stroke-miterlimit:10;}
	.st3{fill:#FFE29F;stroke:#000000;stroke-width:3;stroke-miterlimit:10;}
</style>
<rect class="st0" width="1920" height="1080"/>
<rect x="-11.2" y="843.3" class="st1" width="151.2" height="236.8"/>
<rect x="-14.9" y="843.3" class="st2" width="158.2" height="17.6"/>
<rect x="202.3" y="721.3" class="st3" width="219.5" height="359"/>
<rect x="202.3" y="951.6" class="st3" width="219.5" height="128.7"/>
<rect x="173.4" y="860.8" class="st3" width="74.3" height="219.5"/>
<rect x="373" y="860.8" class="st3" width="74.3" height="219.5"/>
<rect x="473.8" y="843.5" class="st1" width="151.2" height="236.8"/>
<rect x="470.1" y="843.5" class="st2" width="158.2" height="17.6"/>
<rect x="687.4" y="721.6" class="st3" width="219.5" height="359"/>
<rect x="687.4" y="951.9" class="st3" width="219.5" height="128.7"/>
<rect x="658.4" y="861.1" class="st3" width="74.3" height="219.5"/>
<rect x="858.1" y="861.1" class="st3" width="74.3" height="219.5"/>
<rect x="960.5" y="843.5" class="st1" width="151.2" height="236.8"/>
<rect x="956.8" y="843.5" class="st2" width="158.2" height="17.6"/>
<rect x="1174" y="721.6" class="st3" width="219.5" height="359"/>
<rect x="1174" y="951.9" class="st3" width="219.5" height="128.7"/>
<rect x="1145.1" y="861.1" class="st3" width="74.3" height="219.5"/>
<rect x="1344.7" y="861.1" class="st3" width="74.3" height="219.5"/>
<rect x="1435.4" y="843.4" class="st1" width="151.2" height="236.8"/>
<rect x="1431.7" y="843.4" class="st2" width="158.2" height="17.6"/>
<rect x="1648.9" y="721.5" class="st3" width="219.5" height="359"/>
<rect x="1648.9" y="951.7" class="st3" width="219.5" height="128.7"/>
<rect x="1620" y="861" class="st3" width="74.3" height="219.5"/>
<rect x="1819.6" y="861" class="st3" width="74.3" height="219.5"/>
<rect x="1920.4" y="843.7" class="st1" width="151.2" height="236.8"/>
<rect x="1916.7" y="843.7" class="st2" width="158.2" height="17.6"/>
</svg>
